<?xml version="1.0" encoding="utf-8"?>
<!-- Generator: Adobe Illustrator 18.1.1, SVG Export Plug-In . SVG Version: 6.00 Build 0)  -->
<svg version="1.1" xmlns="http://www.w3.org/2000/svg" xmlns:xlink="http://www.w3.org/1999/xlink" x="0px" y="0px"
	 viewBox="0 0 2008.6 730.8" enable-background="new 0 0 2008.6 730.8" xml:space="preserve">
<g id="文字">
	
		<text transform="matrix(1.2 0 0 1 513.1907 478.0458)" font-family="'AvenirNext-BoldItalic'" font-size="525.5391" letter-spacing="-112.5">T</text>
	<text transform="matrix(1 0 0 1 839.1946 474.0234)"><tspan x="0" y="0" font-family="'AvenirNext-BoldItalic'" font-size="464.783" letter-spacing="-11">chan</tspan><tspan x="1017.4" y="0" font-family="'AvenirNext-BoldItalic'" font-size="464.783" letter-spacing="-18">!</tspan></text>
	<polygon points="812.3,322.7 778.2,322.7 749.6,322.7 742.8,383.7 771.4,383.7 805.4,383.7 834,383.7 840.9,322.7 	"/>
</g>
<g id="アイコン">
	<g>
		<path fill-rule="evenodd" clip-rule="evenodd" fill="#161616" d="M243.6,0C109,0,0,107.9,0,241.1c0,64.5,19.9,107.4,66.4,165
			c12.4,15.3,177.1,182,177.1,182s164.5-166.7,176.9-182c46.6-57.6,66.2-100.5,66.2-165C486.7,107.9,377,0,243.6,0z M243.6,422.5
			c-101.2-1-181.3-81.9-181.3-181.5c0-99.6,80.1-180.5,181.3-181.5c100,1,181.3,81.9,181.3,181.5
			C424.8,340.7,343.6,421.5,243.6,422.5z"/>
	</g>
	<line fill="none" stroke="#161616" stroke-width="30" stroke-miterlimit="10" x1="157.9" y1="162.5" x2="261.1" y2="265.7"/>
	<line fill="none" stroke="#161616" stroke-width="20" stroke-miterlimit="10" x1="364.8" y1="127.3" x2="221.4" y2="270.1"/>
</g>
</svg>
