<?xml version="1.0" encoding="utf-8"?>
<!-- Generator: Adobe Illustrator 18.1.1, SVG Export Plug-In . SVG Version: 6.00 Build 0)  -->
<svg version="1.1" id="レイヤー_1" xmlns="http://www.w3.org/2000/svg" xmlns:xlink="http://www.w3.org/1999/xlink" x="0px"
	 y="0px" viewBox="0 0 812 771.7" enable-background="new 0 0 812 771.7" xml:space="preserve">
<text transform="matrix(1 0 0 1 -2.250671e-04 715.2896)"><tspan x="0" y="0" fill="#2196F3" font-family="'07LogoTypeGothic7-83pv-RKSJ-H'" font-size="253.0506" letter-spacing="-46">T</tspan><tspan x="111.1" y="0" fill="#2196F3" font-family="'07LogoTypeGothic7-83pv-RKSJ-H'" font-size="253.0506" letter-spacing="3">-</tspan><tspan x="232.8" y="0" fill="#2196F3" font-family="'07LogoTypeGothic7-83pv-RKSJ-H'" font-size="253.0506" letter-spacing="-6">ch</tspan><tspan x="485.1" y="0" fill="#2196F3" font-family="'07LogoTypeGothic7-83pv-RKSJ-H'" font-size="253.0506" letter-spacing="-11">a</tspan><tspan x="606.8" y="0" fill="#2196F3" font-family="'07LogoTypeGothic7-83pv-RKSJ-H'" font-size="253.0506" letter-spacing="-6">n</tspan><tspan x="741.4" y="0" fill="#2196F3" font-family="'07LogoTypeGothic7-83pv-RKSJ-H'" font-size="253.0506" letter-spacing="-10">!</tspan></text>
<g>
	<g>
		<path fill-rule="evenodd" clip-rule="evenodd" fill="#2196F3" d="M405.8,487.3c-1.3-1.4-135-137.9-145-150.4
			c-40.2-50.2-54.5-86-54.5-136.7c0-53.3,20.8-103.5,58.5-141.2c37.7-37.7,87.9-58.5,141.3-58.5c110,0,199.5,89.6,199.5,199.7
			c0,50.8-14.2,86.6-54.3,136.7c-10,12.5-143.5,149-144.8,150.4l-0.4,0.4L405.8,487.3z M406.2,50.7c-39.9,0.4-77.1,16.1-104.9,44.3
			c-27.7,28.1-43,65.4-43,105.2c0,39.7,15.3,77.1,43,105.2c27.8,28.1,65,43.9,104.9,44.3c39.5-0.4,76.6-16.1,104.5-44.3
			c27.9-28.2,43.3-65.5,43.3-105.2c0-39.6-15.4-77-43.3-105.2C482.9,66.8,445.7,51.1,406.2,50.7z"/>
		<path fill="#2196F3" d="M406.2,1c109.2,0,199,89.2,199,199.2c0,53.3-16.1,88.8-54.2,136.4c-10.1,12.7-144.8,150.4-144.8,150.4
			s-134.9-137.7-145-150.4c-38.1-47.6-54.4-83-54.4-136.4C206.8,90.2,296.1,1,406.2,1 M406.2,350.1c81.9-0.9,148.4-67.6,148.4-150
			c0-82.3-66.5-149.1-148.4-149.9c-82.8,0.9-148.4,67.6-148.4,149.9C257.8,282.5,323.4,349.2,406.2,350.1 M406.2,0
			c-27.1,0-53.3,5.3-78,15.7c-23.9,10.1-45.3,24.5-63.7,42.9c-18.4,18.4-32.8,39.8-42.9,63.6c-10.4,24.7-15.7,50.9-15.7,77.9
			c0,26.7,4.1,49.2,13,70.7c8.4,20.3,21.2,40.8,41.6,66.3c10,12.5,139.6,144.8,145.1,150.5l0.7,0.7l0.7-0.7
			c5.5-5.6,134.8-137.9,144.9-150.5c20.4-25.5,33.2-45.9,41.5-66.3c8.8-21.5,12.9-43.9,12.9-70.7c0-27-5.3-53.2-15.8-77.9
			c-10.1-23.8-24.6-45.2-43-63.6c-18.4-18.4-39.8-32.8-63.6-42.9C459.1,5.3,433,0,406.2,0L406.2,0z M406.2,349.1
			c-39.7-0.4-76.9-16.1-104.5-44.1c-27.6-28-42.8-65.2-42.8-104.8c0-39.6,15.2-76.8,42.8-104.8c27.7-28.1,64.8-43.7,104.6-44.1
			c39.4,0.4,76.4,16.1,104.2,44.1c27.9,28.1,43.2,65.3,43.2,104.8c0,39.5-15.3,76.7-43.2,104.8C482.6,333,445.6,348.7,406.2,349.1
			L406.2,349.1z"/>
	</g>
	<rect x="394.4" y="192.7" fill="#2196F3" stroke="#2196F3" stroke-miterlimit="10" width="21.5" height="23.1"/>
	<line fill="#2196F3" stroke="#2196F3" stroke-width="15" stroke-miterlimit="10" x1="336" y1="134" x2="420.6" y2="218.5"/>
	<line fill="#2196F3" stroke="#2196F3" stroke-width="10" stroke-miterlimit="10" x1="505.4" y1="105.2" x2="388" y2="222.1"/>
</g>
</svg>
